<?xml version="1.0" encoding="iso-8859-1"?>
<!-- Generator: Adobe Illustrator 17.1.0, SVG Export Plug-In . SVG Version: 6.00 Build 0)  -->
<!DOCTYPE svg PUBLIC "-//W3C//DTD SVG 1.1//EN" "http://www.w3.org/Graphics/SVG/1.1/DTD/svg11.dtd">
<svg version="1.1" id="Capa_1" xmlns="http://www.w3.org/2000/svg" xmlns:xlink="http://www.w3.org/1999/xlink" x="0px" y="0px"
	 viewBox="0 0 512 512" style="enable-background:new 0 0 512 512;" xml:space="preserve">
<g>
	<path d="M192.595,206.248c-2.5-3.642-7.48-4.568-11.123-2.067c-3.643,2.5-4.568,7.481-2.067,11.124
		C187.645,227.306,192,241.378,192,256c0,39.701-32.299,72-72,72s-72-32.299-72-72s32.299-72,72-72
		c13.77,0,27.149,3.897,38.694,11.27c3.722,2.377,8.67,1.288,11.048-2.437c2.378-3.724,1.288-8.67-2.437-11.048
		C153.185,172.767,136.827,168,120,168c-48.523,0-88,39.477-88,88s39.477,88,88,88s88-39.477,88-88
		C208,238.131,202.673,220.927,192.595,206.248z"/>
	<path d="M464.595,206.248c-2.5-3.642-7.482-4.568-11.123-2.067c-3.643,2.5-4.568,7.481-2.067,11.124
		C459.645,227.306,464,241.378,464,256c0,39.701-32.299,72-72,72s-72-32.299-72-72s32.299-72,72-72
		c13.77,0,27.149,3.897,38.694,11.27c3.723,2.377,8.67,1.288,11.048-2.437c2.378-3.724,1.288-8.67-2.437-11.048
		C425.185,172.767,408.827,168,392,168c-48.523,0-88,39.477-88,88s39.477,88,88,88s88-39.477,88-88
		C480,238.131,474.673,220.927,464.595,206.248z"/>
	<path d="M392,136H120C53.832,136,0,189.832,0,256s53.832,120,120,120c26.286,0,51.122-8.289,72.009-24h127.982
		c20.887,15.711,45.723,24,72.009,24c66.168,0,120-53.832,120-120S458.168,136,392,136z M392,360
		c-23.598,0-45.844-7.705-64.333-22.282c-1.411-1.113-3.156-1.718-4.953-1.718H189.286c-1.797,0-3.542,0.605-4.953,1.718
		C165.844,352.295,143.599,360,120,360c-57.346,0-104-46.654-104-104s46.654-104,104-104h272c57.346,0,104,46.654,104,104
		S449.346,360,392,360z"/>
	<path d="M144,232v-16c0-8.822-7.178-16-16-16h-16c-8.822,0-16,7.178-16,16v16H80c-8.822,0-16,7.178-16,16v16
		c0,8.822,7.178,16,16,16h16v16c0,8.822,7.178,16,16,16h16c8.822,0,16-7.178,16-16v-16h16c8.822,0,16-7.178,16-16v-16
		c0-8.822-7.178-16-16-16H144z M160,264h-24c-4.418,0-8,3.582-8,8l0.001,24H112v-24c0-4.418-3.582-8-8-8H80v-16h24
		c4.418,0,8-3.582,8-8v-24h16v24c0,4.418,3.582,8,8,8h24V264z"/>
	<path d="M328,256c0,13.233,10.766,24,24,24s24-10.767,24-24s-10.766-24-24-24S328,242.767,328,256z M360,256c0,4.411-3.589,8-8,8
		s-8-3.589-8-8s3.589-8,8-8S360,251.589,360,256z"/>
	<path d="M392,240c13.234,0,24-10.767,24-24s-10.766-24-24-24s-24,10.767-24,24S378.766,240,392,240z M392,208c4.411,0,8,3.589,8,8
		s-3.589,8-8,8s-8-3.589-8-8S387.589,208,392,208z"/>
	<path d="M392,320c13.234,0,24-10.767,24-24s-10.766-24-24-24s-24,10.767-24,24S378.766,320,392,320z M392,288c4.411,0,8,3.589,8,8
		s-3.589,8-8,8s-8-3.589-8-8S387.589,288,392,288z"/>
	<path d="M456,256c0-13.233-10.766-24-24-24s-24,10.767-24,24s10.766,24,24,24S456,269.233,456,256z M424,256c0-4.411,3.589-8,8-8
		s8,3.589,8,8s-3.589,8-8,8S424,260.411,424,256z"/>
	<path d="M235.563,289.344l-24,16c-3.676,2.451-4.67,7.418-2.219,11.094c1.542,2.313,4.078,3.563,6.664,3.563
		c1.525,0,3.066-0.436,4.43-1.345l24-16c3.676-2.451,4.67-7.418,2.219-11.094C244.206,287.886,239.239,286.893,235.563,289.344z"/>
	<path d="M283.563,289.344l-24,16c-3.676,2.451-4.67,7.418-2.219,11.094c1.542,2.313,4.078,3.563,6.664,3.563
		c1.525,0,3.066-0.436,4.43-1.345l24-16c3.676-2.451,4.67-7.418,2.219-11.094C292.206,287.886,287.239,286.893,283.563,289.344z"/>
	<path d="M296,176h-80c-4.418,0-8,3.582-8,8s3.582,8,8,8h80c4.418,0,8-3.582,8-8S300.418,176,296,176z"/>
</g>
<g>
</g>
<g>
</g>
<g>
</g>
<g>
</g>
<g>
</g>
<g>
</g>
<g>
</g>
<g>
</g>
<g>
</g>
<g>
</g>
<g>
</g>
<g>
</g>
<g>
</g>
<g>
</g>
<g>
</g>
</svg>
